<?xml version="1.0" encoding="UTF-8"?>
<svg id="Layer_1" xmlns="http://www.w3.org/2000/svg" version="1.1" viewBox="0 0 900 900">
  <!-- Generator: Adobe Illustrator 29.6.1, SVG Export Plug-In . SVG Version: 2.1.1 Build 9)  -->
  <path d="M215.92,554.13c7.87-9.86,16.34-19.25,26.6-26.7,23.61-17.15,51.39-23.68,80.33-24.83,78.31-3.1,158.65,2.39,237.17.04,21.8,2.15,22.48,31.34,1.45,34.8l-240.75.02c-84.09,4.19-100.78,72.29-104.83,143.92-2.25,35.61,3.1,75.13.06,110.29-1.97,22.79-34.01,21.48-34.87-.72v-491.77c5.3-123.74,87.61-202.32,210.67-206.33,102.34-3.33,206.47,2.59,309,0,21.72.58,25.02,29.23,4.26,34.77l-315.44.03c-101.13,3.79-168.12,67.88-173.69,169.34l.04,257.13Z"/>
  <path d="M420.28,214.22l186.83-.15c20.74,5.54,17.48,34.18-4.26,34.77l-180.59-.02c-33.2,3.57-62.61,24.74-75.92,55.34-16.03,36.86-4.14,93.18-7.82,133.6-1.95,21.37-32.51,21.2-34.83-.04,1.22-33.27-1.65-67.7-.04-100.83,3.09-63.7,52.52-117.4,116.65-122.68Z"/>
</svg>
